<svg width="26" height="26" viewBox="0 0 26 26" fill="none" xmlns="http://www.w3.org/2000/svg">
<path d="M10.1337 22.75C10.8976 23.4242 11.901 23.8334 13 23.8334C14.099 23.8334 15.1024 23.4242 15.8663 22.75M19.5 8.66669C19.5 6.94278 18.8152 5.28948 17.5962 4.07049C16.3772 2.85151 14.7239 2.16669 13 2.16669C11.2761 2.16669 9.62279 2.85151 8.40381 4.07049C7.18482 5.28948 6.5 6.94278 6.5 8.66669C6.5 12.0144 5.65551 14.3065 4.71214 15.8225C3.91639 17.1014 3.51851 17.7408 3.5331 17.9192C3.54926 18.1167 3.5911 18.192 3.75026 18.3101C3.894 18.4167 4.54197 18.4167 5.83793 18.4167H20.1621C21.458 18.4167 22.106 18.4167 22.2497 18.3101C22.4089 18.192 22.4507 18.1167 22.4669 17.9192C22.4815 17.7408 22.0836 17.1014 21.2879 15.8226C20.3445 14.3065 19.5 12.0144 19.5 8.66669Z" stroke="white" stroke-width="2" stroke-linecap="round" stroke-linejoin="round"/>
</svg>
