<svg width="26" height="25" viewBox="0 0 26 25" fill="none" xmlns="http://www.w3.org/2000/svg">
<path d="M2.16663 8.16797C2.16663 6.28235 2.16663 5.33954 2.75241 4.75376C3.3382 4.16797 4.28101 4.16797 6.16663 4.16797H19.8333C21.7189 4.16797 22.6617 4.16797 23.2475 4.75376C23.8333 5.33954 23.8333 6.28235 23.8333 8.16797V8.58464C23.8333 9.05604 23.8333 9.29174 23.6868 9.43819C23.5404 9.58463 23.3047 9.58463 22.8333 9.58463H3.16662C2.69522 9.58463 2.45952 9.58463 2.31307 9.43819C2.16663 9.29174 2.16663 9.05604 2.16663 8.58463V8.16797Z" fill="#8E8E8E"/>
<path fill-rule="evenodd" clip-rule="evenodd" d="M2.16663 18.5848C2.16663 20.4704 2.16663 21.4132 2.75241 21.999C3.3382 22.5848 4.28101 22.5848 6.16663 22.5848H19.8333C21.7189 22.5848 22.6617 22.5848 23.2475 21.999C23.8333 21.4132 23.8333 20.4704 23.8333 18.5848V12.7515C23.8333 12.2801 23.8333 12.0444 23.6868 11.8979C23.5404 11.7515 23.3047 11.7515 22.8333 11.7515H3.16662C2.69522 11.7515 2.45952 11.7515 2.31307 11.8979C2.16663 12.0444 2.16663 12.2801 2.16663 12.7515V18.5848ZM7.58329 14.9181C7.58329 14.4467 7.58329 14.211 7.72974 14.0646C7.87619 13.9181 8.11189 13.9181 8.58329 13.9181H10.9166C11.388 13.9181 11.6237 13.9181 11.7702 14.0646C11.9166 14.211 11.9166 14.4467 11.9166 14.9181V15.0848C11.9166 15.5562 11.9166 15.7919 11.7702 15.9384C11.6237 16.0848 11.388 16.0848 10.9166 16.0848H8.58329C8.11189 16.0848 7.87619 16.0848 7.72974 15.9384C7.58329 15.7919 7.58329 15.5562 7.58329 15.0848V14.9181ZM7.72974 18.3979C7.58329 18.5444 7.58329 18.7801 7.58329 19.2515V19.4181C7.58329 19.8895 7.58329 20.1252 7.72974 20.2717C7.87619 20.4181 8.11189 20.4181 8.58329 20.4181H10.9166C11.388 20.4181 11.6237 20.4181 11.7702 20.2717C11.9166 20.1252 11.9166 19.8895 11.9166 19.4181V19.2515C11.9166 18.7801 11.9166 18.5444 11.7702 18.3979C11.6237 18.2515 11.388 18.2515 10.9166 18.2515H8.58329C8.11189 18.2515 7.87619 18.2515 7.72974 18.3979ZM14.0833 14.9181C14.0833 14.4467 14.0833 14.211 14.2297 14.0646C14.3762 13.9181 14.6119 13.9181 15.0833 13.9181H17.4166C17.888 13.9181 18.1237 13.9181 18.2702 14.0646C18.4166 14.211 18.4166 14.4467 18.4166 14.9181V15.0848C18.4166 15.5562 18.4166 15.7919 18.2702 15.9384C18.1237 16.0848 17.888 16.0848 17.4166 16.0848H15.0833C14.6119 16.0848 14.3762 16.0848 14.2297 15.9384C14.0833 15.7919 14.0833 15.5562 14.0833 15.0848V14.9181ZM14.2297 18.3979C14.0833 18.5444 14.0833 18.7801 14.0833 19.2515V19.4181C14.0833 19.8895 14.0833 20.1252 14.2297 20.2717C14.3762 20.4181 14.6119 20.4181 15.0833 20.4181H17.4166C17.888 20.4181 18.1237 20.4181 18.2702 20.2717C18.4166 20.1252 18.4166 19.8895 18.4166 19.4181V19.2515C18.4166 18.7801 18.4166 18.5444 18.2702 18.3979C18.1237 18.2515 17.888 18.2515 17.4166 18.2515H15.0833C14.6119 18.2515 14.3762 18.2515 14.2297 18.3979Z" fill="#8E8E8E"/>
<path d="M7.58325 2.00146L7.58325 5.25146" stroke="#8E8E8E" stroke-width="2" stroke-linecap="round"/>
<path d="M18.4166 2.00146L18.4166 5.25146" stroke="#8E8E8E" stroke-width="2" stroke-linecap="round"/>
</svg>
