<svg width="26" height="26" viewBox="0 0 26 26" fill="none" xmlns="http://www.w3.org/2000/svg">
<path d="M8.65062 4.10087L8.64072 4.10746C8.43574 4.24059 8.19094 4.34168 7.96965 4.44597C6.35869 5.20519 5.86703 5.64592 5.04963 7.21378C4.69538 7.89328 4.38331 8.60104 4.15413 9.33359L3.95902 10.0417C3.91494 10.2032 3.85763 10.3637 3.82111 10.527L3.49087 12.185C3.36486 12.9977 3.28569 13.8355 3.24796 14.6568L3.24378 18.2286C3.24455 18.5211 3.23108 18.8308 3.32301 19.1134C3.50907 19.6853 4.05678 20.1175 4.67472 19.9939C5.52097 19.8245 5.5714 19.3162 5.57413 18.5605L5.57754 17.3175C5.57726 17.0212 5.61472 16.736 5.62484 16.4419L5.63831 15.2266C5.64373 15.0464 5.68044 14.8672 5.6888 14.6867L5.70376 13.9758C5.72678 13.6052 5.7683 13.2365 5.79517 12.8669L5.8142 12.3922C5.82014 12.3075 5.83966 12.2249 5.84481 12.1415L5.89851 11.1733L5.90374 9.46262C5.88388 9.07086 5.82806 8.64914 5.72202 8.26908C5.61392 7.88154 5.48143 7.59884 5.97598 7.47477C6.05028 7.49461 6.13066 7.50943 6.194 7.55471L6.21143 7.567C6.30325 7.63437 6.32943 7.7163 6.36169 7.81956L6.46591 8.25644C6.55702 8.60919 6.60467 9.01497 6.6264 9.37949L6.61496 11.5855L6.43113 14.2799C6.42538 14.3743 6.40709 14.4664 6.40253 14.5614L6.38625 15.2442C6.38086 15.3552 6.35833 15.4643 6.35385 15.5757L6.33259 17.4962C6.331 17.682 6.29726 17.8616 6.2958 18.046L6.2884 20.7609C6.49033 20.7806 6.68962 20.7721 6.89161 20.7791L10.2985 20.7951C10.735 20.7946 11.757 20.7596 11.7936 20.1257C11.8167 19.7243 11.7945 19.3086 11.7945 18.9057L11.7938 8.73497C11.7937 8.62883 11.6947 8.62688 11.6235 8.57617L11.1398 8.20066C9.91755 7.16758 9.07043 6.08095 8.73961 4.45277C8.72583 4.38501 8.70389 4.13305 8.65062 4.10087Z" fill="#8E8E8E"/>
<path d="M17.3318 4.09757C17.2899 4.28105 17.2652 4.46668 17.2156 4.64873C16.7927 6.20163 15.7522 7.71335 14.3697 8.56859L14.3183 8.5976C14.2735 8.62072 14.2413 8.65281 14.2061 8.68792L14.2023 8.69175L14.2082 19.0509C14.2082 19.8809 14.0248 20.6565 15.0929 20.7834L15.1134 20.786C15.3018 20.8075 15.5017 20.7954 15.6916 20.7955L18.1179 20.795C18.6516 20.7946 19.1868 20.7908 19.7173 20.7315L19.7159 20.7183C19.6931 20.4965 19.7053 20.2635 19.7047 20.0401L19.701 17.5708C19.6976 17.4444 19.6735 17.3208 19.6721 17.1926L19.6667 15.6739L19.4255 11.7702C19.4193 11.6716 19.3995 11.5752 19.3943 11.4764L19.394 9.27916C19.4113 8.95536 19.4491 8.57176 19.5387 8.25686C19.579 8.02037 19.6143 7.68803 19.8253 7.5403C19.9779 7.43348 20.2173 7.46541 20.3125 7.63396L20.3546 7.71974C20.4016 7.81841 20.368 7.9517 20.3364 8.05021C20.2077 8.45108 20.1631 8.87653 20.1341 9.29396L20.1023 11.215C20.1075 11.3297 20.1328 11.4425 20.1378 11.5571C20.1578 12.0167 20.1735 12.5174 20.2133 12.9741L20.3235 14.5821C20.3307 14.7189 20.3588 14.853 20.3641 14.9906L20.3738 15.5394C20.3755 15.9443 20.4236 16.3084 20.4234 16.7332L20.4265 18.2199C20.4267 18.5493 20.3993 18.9044 20.4578 19.2274C20.6455 20.2639 22.4444 20.3957 22.7352 18.8797C22.7648 18.7252 22.7504 18.5507 22.7507 18.3931L22.779 15.4704L22.7396 14.3626L22.5334 12.4056C22.3441 11.1084 22.059 9.82562 21.5862 8.59922L21.3148 7.97181C20.7515 6.70167 20.1458 5.58887 18.8969 4.89287L17.3318 4.09757Z" fill="#8E8E8E"/>
<path d="M10.2204 3.26959C10.0515 3.37661 9.4453 3.64601 9.36305 3.72311C9.48735 5.17668 10.286 6.52772 11.3911 7.45648L11.929 7.88515C12.135 8.04348 12.5172 8.24763 12.5406 8.54264L12.5224 21.897L13.1343 21.8955C13.2392 21.8952 13.3543 21.9046 13.4576 21.8915L13.4574 15.863L13.457 8.76888C13.4578 8.2195 13.7566 8.1151 14.1722 7.80141L14.6865 7.38065C15.8693 6.35815 16.3971 5.21171 16.647 3.71526L15.8134 3.2732C15.6878 4.42892 14.8791 5.64873 13.972 6.37759L13.568 6.68412C13.0679 7.07241 13.0539 7.16158 12.5469 6.77929C11.5129 5.9998 10.5722 4.99463 10.2755 3.69416C10.2434 3.55362 10.2467 3.40922 10.2204 3.26959Z" fill="#8E8E8E"/>
<path d="M10.949 3.04036C10.9356 3.28279 10.9735 3.53293 11.0511 3.76344L11.0944 3.88684C11.5344 4.9173 12.1454 5.52962 12.9947 6.19882C13.4321 5.87664 13.8441 5.52015 14.1893 5.09878C14.617 4.58188 15.1073 3.73812 15.0948 3.03755C14.6454 3.10691 14.1945 3.17241 13.7398 3.19673L12.2547 3.19718C11.8932 3.17745 11.5103 3.14214 11.1544 3.07479C11.0987 3.06424 11.0029 3.03259 10.949 3.04036Z" fill="#8E8E8E"/>
<path d="M14.228 21.2757C14.2076 21.4155 14.161 22.1193 14.2502 22.2234C14.3974 22.395 14.6964 22.4815 14.9151 22.4911L18.2186 22.4939L18.2281 22.4939C18.6428 22.4935 19.1111 22.493 19.4049 22.1408C19.5809 21.9454 19.6803 21.7333 19.7343 21.477L19.1216 21.5039C19.0154 21.5134 18.9148 21.5336 18.8069 21.5374L15.6896 21.5472C15.2258 21.5467 14.6513 21.5248 14.2459 21.2746L14.228 21.2757Z" fill="#8E8E8E"/>
<path d="M11.7502 21.2757C11.333 21.4802 10.8793 21.5464 10.4223 21.5471L6.49723 21.4976C6.43077 21.4955 6.34513 21.4832 6.28078 21.4972C6.32839 21.7489 6.44017 21.9766 6.61595 22.1647C6.7436 22.2731 6.86479 22.3547 7.02176 22.4137L7.04101 22.4211C7.30897 22.5206 7.60789 22.4937 7.88629 22.494L10.4006 22.494C10.6555 22.4938 11.697 22.534 11.777 22.1607C11.8068 22.022 11.8195 21.4354 11.7863 21.2718L11.7502 21.2757Z" fill="#8E8E8E"/>
</svg>
