<svg width="55" height="56" viewBox="0 0 55 56" fill="none" xmlns="http://www.w3.org/2000/svg">
<path d="M43.5266 8.67969H11.8047C8.87497 8.67969 6.5 10.4573 6.5 12.65V42.7939C6.5 44.9866 8.87497 46.7642 11.8047 46.7642H43.5266C46.4562 46.7642 48.8312 44.9866 48.8312 42.7939V12.65C48.8312 10.4573 46.4562 8.67969 43.5266 8.67969Z" stroke="white" stroke-width="4" stroke-miterlimit="10"/>
<path d="M27.6655 8.67969V46.7642" stroke="white" stroke-width="4" stroke-miterlimit="10"/>
<path d="M23.375 23.625H20V32.625H23.375V23.625Z" fill="white"/>
<path d="M17.75 48.375H11V51.75H17.75V48.375Z" fill="white"/>
<path d="M44.75 48.375H38V51.75H44.75V48.375Z" fill="white"/>
<path d="M35.75 23.625H32.375V32.625H35.75V23.625Z" fill="white"/>
<path d="M2 2.25L52.625 54" stroke="white" stroke-width="4" stroke-linecap="round"/>
</svg>
