<svg width="32" height="29" viewBox="0 0 32 29" fill="none" xmlns="http://www.w3.org/2000/svg">
<path d="M26.8317 7.85416L27.0752 8.65049C27.1823 9.1847 27.3976 9.70697 27.5467 10.231L28.0284 11.7876C28.0616 11.9385 28.129 12.0837 28.1656 12.2347L28.9159 14.8326C28.9224 14.8639 28.9275 14.8917 28.9382 14.9219L29.7599 17.6888C29.8059 17.8072 29.8455 17.9605 29.8702 18.0845L30.281 19.5027C30.3016 19.606 30.3368 19.7459 30.3738 19.8445L30.6249 20.7383C30.6798 21.0133 30.8246 21.4566 30.908 21.7375C31.0058 22.067 31.0826 22.4006 31.1811 22.7299L31.5224 23.996C31.5625 24.1506 31.6179 24.3073 31.6467 24.4641C31.7529 25.0429 31.9959 25.4618 31.9999 26.1319C32.007 27.3079 31.3914 28.3374 30.2741 28.7757C30.1157 28.8379 29.954 28.8691 29.794 28.9224L29.7598 28.9334C28.6211 29.2421 27.2014 28.4333 26.6632 27.4167C26.4728 27.057 26.3814 26.6648 26.2654 26.2777L24.1816 19.0199C24.1449 19.3087 24.2288 19.6103 24.2753 19.8946L24.3895 20.7109C24.4078 20.8389 24.408 20.9683 24.4238 21.0959L24.7598 24.4398C24.7654 25.7579 24.0526 27.0289 22.93 27.7021C21.9746 28.275 21.0975 28.4117 20.0222 28.4094L17.9617 28.3555C17.8473 28.3483 17.7355 28.3187 17.6228 28.3126L14.1672 28.3583L12.1302 28.4044L11.4454 28.3643C10.8171 28.3172 10.1876 28.2357 9.60409 27.9819C8.35604 27.439 7.38448 26.1585 7.24649 24.7989C7.21438 24.4825 7.2497 24.1883 7.28024 23.8763L7.58065 20.9504C7.62932 20.5023 7.72792 20.042 7.73331 19.5917C7.69099 19.6483 7.67151 19.7705 7.64905 19.8405L5.841 26.0236C5.7607 26.2899 5.6537 26.5537 5.58725 26.8233C4.77654 30.1111 0.016728 29.3981 0.000850949 26.1791C0.000178597 26.0425 -0.00583837 25.9022 0.0271888 25.7689L5.29432 7.8029C5.73906 6.5294 6.43653 5.33669 7.73871 4.78906C8.72109 4.37592 9.91033 4.26378 10.8525 3.80972L10.934 3.05332C10.973 2.80416 11.1386 2.44957 11.0805 2.20863C10.4408 -0.443809 17.3125 -0.156562 19.0947 0.294162C19.9694 0.515381 21.1534 0.9676 21.0515 2.07507C21.0271 2.34017 20.9692 2.48728 21.0552 2.75471C21.1598 3.08025 21.0897 3.42573 21.143 3.75818C21.2015 3.80061 21.2844 3.82269 21.3524 3.8477L22.9897 4.34468C23.2772 4.42568 23.576 4.48649 23.859 4.58049C25.1744 5.01728 26.0598 6.01431 26.607 7.27183C26.6879 7.45765 26.788 7.65681 26.8317 7.85416ZM15.7204 1.13579C14.5744 1.13942 13.4738 1.24783 12.417 1.7059L12.5173 1.76332C12.9673 2.02709 13.7316 2.15336 14.244 2.21947L14.677 2.25872C15.2517 2.32166 15.8293 2.36446 16.4083 2.33168C17.5092 2.29945 18.7003 2.16972 19.7287 1.75175C18.615 1.18154 16.9745 1.06759 15.7204 1.13579ZM12.0661 2.848L12.0016 3.52384C11.9542 4.02992 11.9299 4.54309 11.4198 4.82749L11.3927 4.84282C11.1809 4.95921 10.9216 4.99613 10.6913 5.06604L9.16583 5.50259C8.59297 5.67085 7.94417 5.88989 7.47345 6.27651L8.49225 10.3939L9.03174 12.6692C9.25 13.7517 9.11966 14.86 9.06928 15.9512L9.05112 17.08L8.42693 23.9942C8.34437 24.8228 8.48816 25.6417 9.11515 26.2521L9.13764 26.2413C9.37095 26.1308 9.64105 26.0958 9.88777 26.0237C10.6777 25.8026 11.5168 25.6695 12.3327 25.5931L14.891 25.5036C14.9743 25.5035 15.4608 25.5142 15.4843 25.4807C15.4853 23.6607 15.5084 3.50263 15.4783 3.44178C14.6762 3.4115 13.8921 3.33895 13.1107 3.14746L12.4 2.94966C12.3191 2.92328 12.1373 2.82719 12.0661 2.848ZM19.9821 2.87517C19.2438 3.11563 18.4876 3.28334 17.7167 3.36465L16.9422 3.43135C16.8322 3.43891 16.6866 3.42392 16.5847 3.45605C16.5433 3.9286 16.5746 4.42736 16.5744 4.90237L16.5748 24.6911C16.5749 24.9478 16.5445 25.2507 16.5889 25.5014L19.517 25.5123C20.3933 25.5597 21.259 25.7249 22.1108 25.9272L22.9179 26.2094C23.7076 25.3614 23.6669 24.6164 23.5538 23.5512L23.2801 20.8991L23.1103 18.6135C23.1024 18.4877 23.075 18.3673 23.0687 18.2402L23.0528 17.2673C23.0482 17.0629 23.0152 16.8647 23.0065 16.6621L22.9323 13.9565C22.936 13.6249 22.9613 13.3075 23.0117 12.9802L24.0474 8.66216L24.5066 6.603C24.5304 6.46763 24.5982 6.37503 24.5173 6.25372C24.199 5.77659 23.3846 5.6343 22.873 5.49489L21.6224 5.13804C20.9508 4.95941 20.2401 4.85172 20.0756 4.04998C20.0275 3.8155 20.0139 2.94679 19.9821 2.87517ZM6.65765 7.39848C6.46127 7.76772 6.32479 8.17785 6.19032 8.57329L5.99988 9.10781L1.22344 25.8846C1.04312 26.6903 1.73091 27.5203 2.49693 27.6812C3.94224 27.868 4.31094 27.2534 4.66729 25.9763L5.83244 22.0797L7.69482 15.4393C8.11536 13.781 7.84116 12.6929 7.45427 11.0833L6.76093 7.92968C6.72963 7.7632 6.71694 7.55562 6.65765 7.39848ZM25.4912 7.53413C25.3551 8.24389 25.1568 8.93555 24.9777 9.63473L24.2668 12.4981C24.1435 12.9955 24.0454 13.4738 24.1775 13.9879L24.8394 16.882C24.845 16.9094 24.8531 16.9334 24.8617 16.9598L25.3354 18.7527C25.4182 19.0101 25.4623 19.2846 25.55 19.5389L26.8876 24.3719C26.8933 24.3956 26.901 24.4168 26.9092 24.4396L27.4616 26.3315C27.8748 27.4777 28.343 27.8864 29.5517 27.8326C30.3728 27.715 31.0331 26.9178 30.9149 26.0785C30.8781 25.8176 30.7979 25.5555 30.7251 25.303L29.1166 19.6033L25.9845 8.84613L25.4912 7.53413ZM14.7507 26.6436L12.6817 26.719C11.9161 26.7558 11.1161 26.8825 10.3798 27.0852C11.1809 27.2133 11.5991 27.2283 12.419 27.2282L14.0377 27.2136C14.2419 27.2073 14.44 27.1708 14.6425 27.162L16.0462 27.1532C16.5315 27.1539 17.0288 27.1383 17.5113 27.1938L18.8509 27.2294L20.0897 27.2886C20.6885 27.2885 21.304 27.2532 21.8664 27.0263C21.3581 26.9585 20.8548 26.8432 20.3446 26.7937L18.1393 26.6502L14.7507 26.6436Z" fill="black"/>
</svg>
