<svg width="27" height="26" viewBox="0 0 27 26" fill="none" xmlns="http://www.w3.org/2000/svg">
<path d="M8.70629 25.454L6.46905 25.4536C5.64197 25.4505 5.47289 24.8908 5.81178 24.0975C5.94194 23.7929 6.09943 23.498 6.21633 23.1876C6.12216 22.8892 5.99789 22.5589 5.84292 22.2925C5.59634 22.672 5.32981 23.4054 4.79603 23.3278C4.33915 23.2614 3.92144 23.0086 3.49956 22.8196L2.33218 22.3334C1.68581 22.0811 1.08042 22.0659 0.790817 21.2557L0.768566 21.1939C0.54216 20.5636 0.783571 19.924 0.965338 19.3251L2.2306 14.9922L3.96809 7.7539C4.37268 6.04988 5.00777 4.33869 6.64669 3.61713C7.72885 3.14069 8.62654 3.23995 9.27934 2.03787C9.60152 1.44457 9.80663 0.522212 10.3974 0.292356L10.5733 0.236173C10.9309 0.161435 11.3057 0.249421 11.6054 0.469814C12.1612 0.878499 12.2425 1.38319 12.2502 2.0414C13.0146 2.4637 14.0983 2.43257 14.934 2.23099C14.8781 1.98855 14.8389 1.71413 14.8756 1.46561L14.8795 1.44071C14.9762 0.73715 15.6087 0.261853 16.2287 0.205743C16.9517 0.123843 17.3313 0.726017 17.6003 1.35721L18.0883 2.43253C18.2215 2.74224 18.1751 2.72751 18.4729 2.78351L20.2248 3.17935C20.5087 3.24945 20.7886 3.30798 21.0537 3.44573C21.8752 3.87263 22.6477 5.08975 22.9439 6.00327L23.6052 8.17316L24.7032 13.0949C24.7267 13.2572 24.7767 13.4252 24.8144 13.5853L24.9211 14.0747C24.9609 14.2335 25.0109 14.395 25.0407 14.5563L26.0015 18.7448C26.0061 18.7764 26.0104 18.7999 26.0217 18.8297C26.2047 19.3098 26.3828 20.6745 26.2606 21.0995L26.2523 21.1272C26.051 21.8316 25.608 22.0346 25.0211 22.2111C24.465 22.3783 23.9587 22.609 23.4435 22.8912C23.2064 23.0211 22.9702 23.1658 22.715 23.2501L22.6858 23.2595C21.9939 23.488 21.7549 23.1528 21.3986 22.573L21.2057 22.2846L20.8524 23.2104C20.6978 23.5496 22.3382 25.4532 20.4335 25.4537L8.70629 25.454ZM10.7682 1.30155C10.6496 1.37083 10.5548 1.73799 10.4962 1.87485C10.3287 2.26572 10.1159 2.63537 9.90176 2.998C10.7738 4.17314 11.3012 5.89398 12.9336 5.89854L13.6196 5.8994C15.5043 5.90311 15.975 6.01933 17.0792 4.06478L17.438 3.40554L16.9198 2.33979C16.8206 2.11999 16.6248 1.4167 16.3991 1.32845C16.2053 1.25267 15.9214 1.34712 15.8639 1.57987C15.7961 1.85388 16.1146 2.1908 15.9838 2.59525L15.9753 2.6232C15.5547 3.94982 11.4458 3.68326 11.2595 2.32205L11.2553 2.29222C11.2339 2.1243 11.2526 1.94777 11.2542 1.77833C11.2573 1.46932 11.0426 1.26154 10.7682 1.30155ZM9.20948 3.74687C8.77608 4.03098 8.30686 4.18743 7.82476 4.34451C6.32864 4.83195 5.50864 5.57558 5.08939 7.33371L2.72959 16.9988L2.19714 18.7422C2.04405 19.198 1.88819 19.6555 1.77106 20.1238C1.53505 21.0674 1.80732 21.0121 2.49026 21.2599L3.56279 21.6777C3.92243 21.8256 4.27407 22.0526 4.64396 22.1612C4.91354 21.8371 5.09048 21.4691 5.32656 21.1247L5.32345 21.0921C5.281 20.6226 5.31057 20.1279 5.31057 19.6542L5.31546 18.1638L5.77404 13.6126L5.91039 12.7591C5.94009 12.616 5.95725 12.4688 6.04413 12.3495C6.3755 11.8947 7.0189 12.1439 6.87046 13.0096L6.59678 14.8372L6.33056 17.636L6.32499 20.8522C6.32584 21.1815 6.41662 21.1568 6.55932 21.4375L6.97317 22.2776C7.00783 22.3476 7.05267 22.4871 7.11153 22.5267C7.43651 22.5029 7.76655 22.5157 8.09245 22.5157L19.1733 22.5169C19.3959 22.5178 19.6278 22.5103 19.8482 22.5453L19.9972 22.5589L20.136 22.2344L20.5216 21.391C20.6222 21.1814 20.6626 21.2135 20.6627 20.9591L20.6383 18.3966L20.686 17.4256C20.6947 17.1625 20.6902 17.0393 20.6832 16.7803L20.5242 14.1369C20.4724 13.7134 20.3869 13.2743 20.3685 12.8485C20.3373 12.1274 21.1505 11.9589 21.3011 12.5724L21.3172 12.6294C21.3512 12.7268 21.3555 12.8442 21.3688 12.9474L21.6296 15.293L21.6826 16.4706L21.6843 20.6077C21.6843 21.0566 21.6122 20.9225 21.8231 21.2788C22.006 21.5878 22.1755 21.9563 22.4219 22.2109L22.9236 21.966C23.5057 21.656 24.0587 21.3441 24.6905 21.1719C24.8238 21.1355 24.9693 21.1111 25.0954 21.0518L25.1148 21.043C25.6141 20.7975 24.892 18.394 24.7973 17.9717L22.6145 8.29284C22.2859 7.07298 21.7153 4.94012 20.5239 4.39476C20.2456 4.26736 19.9699 4.20966 19.6767 4.14182L18.3693 3.87694C18.2768 3.99624 18.2093 4.14698 18.1368 4.28128L17.772 4.94754C17.1092 6.10981 16.1734 6.91059 14.878 7.03825C14.5025 7.07524 14.1018 7.04723 13.724 7.04738C12.5464 7.04782 11.8385 7.04136 10.8741 6.15898C10.335 5.66572 9.94674 4.99326 9.571 4.35483L9.30976 3.91739C9.2764 3.86402 9.24803 3.79452 9.20948 3.74687ZM7.35656 23.6729C6.88406 23.7197 6.99375 24.1421 6.80159 24.3459L19.6339 24.3377L20.1731 24.3034C19.8985 23.8011 19.9564 23.6745 19.4052 23.6721L7.35656 23.6729Z" fill="black"/>
</svg>
