<svg width="24" height="24" viewBox="0 0 24 24" fill="none" xmlns="http://www.w3.org/2000/svg">
<path d="M14.5299 9.46992C13.8799 8.81992 12.9899 8.41992 11.9999 8.41992C10.0199 8.41992 8.41992 10.0199 8.41992 11.9999C8.41992 12.9899 8.81992 13.8799 9.46992 14.5299" stroke="black" stroke-width="1.5" stroke-linecap="round" stroke-linejoin="round"/>
<path d="M17.8198 5.76998C16.0698 4.44998 14.0698 3.72998 11.9998 3.72998C8.46984 3.72998 5.17984 5.80998 2.88984 9.40998C1.98984 10.82 1.98984 13.19 2.88984 14.6C3.67984 15.84 4.59984 16.91 5.59984 17.77" stroke="black" stroke-width="1.5" stroke-linecap="round" stroke-linejoin="round"/>
<path d="M8.41992 19.5302C9.55992 20.0102 10.7699 20.2702 11.9999 20.2702C15.5299 20.2702 18.8199 18.1902 21.1099 14.5902C22.0099 13.1802 22.0099 10.8102 21.1099 9.40018C20.7799 8.88018 20.4391 8.40751 20.0499 7.93018" stroke="black" stroke-width="1.5" stroke-linecap="round" stroke-linejoin="round"/>
<path d="M20.7968 8.91614C19.9471 7.84719 19.0087 6.22579 15.9651 4.64258M9.11519 19.7894C7.93688 19.4003 5.66918 18.2776 3.90918 16.0409M9.25782 14.3086C9.6794 14.8459 11.0524 15.8446 12.8776 15.4676C15.1591 14.9965 16.7847 11.7934 14.4212 9.3841" stroke="black" stroke-width="1.5"/>
<path d="M15.5099 12.6997C15.2499 14.1097 14.0999 15.2597 12.6899 15.5197" stroke="black" stroke-width="1.5" stroke-linecap="round" stroke-linejoin="round"/>
</svg>
