<svg width="43" height="42" viewBox="0 0 43 42" fill="none" xmlns="http://www.w3.org/2000/svg">
<path d="M21.0313 42C32.6466 42 42.0627 32.598 42.0627 21C42.0627 9.40202 32.6466 0 21.0313 0C9.41605 0 0 9.40202 0 21C0 32.598 9.41605 42 21.0313 42Z" fill="#FDDC3F"/>
<path d="M20.925 10.5229C14.2793 10.5229 8.89099 14.8934 8.89099 20.2832C8.89099 23.8258 11.2181 26.9272 14.7007 28.6387C14.7007 28.6387 14.0863 31.5637 10.9286 34.5266C10.9286 34.5266 16.896 32.3251 19.7084 29.9946C20.1094 30.0272 20.5159 30.0435 20.9264 30.0435C27.5734 30.0435 32.9604 25.673 32.9604 20.2832C32.9604 14.8934 27.5721 10.5229 20.9264 10.5229H20.925Z" fill="#3A2929"/>
</svg>
