<svg width="80" height="80" viewBox="0 0 80 80" fill="none" xmlns="http://www.w3.org/2000/svg">
<path d="M40 13.333C52.8866 13.333 63.333 23.7803 63.333 36.667C63.3328 54.7208 43.4412 65.0115 40.3906 66.4834C40.1341 66.6071 39.8659 66.6071 39.6094 66.4834C36.5588 65.0115 16.6672 54.7208 16.667 36.667C16.667 23.7803 27.1134 13.333 40 13.333ZM40 26.667C34.4772 26.667 30 31.1441 30 36.667C30.0002 42.1897 34.4773 46.667 40 46.667C45.5227 46.667 49.9998 42.1897 50 36.667C50 31.1441 45.5228 26.667 40 26.667Z" fill="#393939"/>
<path d="M18 14L63 60" stroke="#E5610F" stroke-width="7" stroke-linecap="round"/>
<circle cx="40" cy="39" r="33.5" stroke="#E5610F" stroke-width="7"/>
</svg>
