<svg width="28" height="29" viewBox="0 0 28 29" fill="none" xmlns="http://www.w3.org/2000/svg">
<path d="M14 18.0002C15.933 18.0002 17.5 16.4332 17.5 14.5002C17.5 12.5672 15.933 11.0002 14 11.0002C12.067 11.0002 10.5 12.5672 10.5 14.5002C10.5 16.4332 12.067 18.0002 14 18.0002Z" stroke="white" stroke-width="2" stroke-linecap="round" stroke-linejoin="round"/>
<path d="M21.8485 17.682C21.7073 18.0019 21.6652 18.3567 21.7276 18.7008C21.79 19.0448 21.954 19.3623 22.1985 19.6123L22.2622 19.6759C22.4594 19.8729 22.6158 20.1069 22.7226 20.3644C22.8293 20.6219 22.8843 20.8979 22.8843 21.1767C22.8843 21.4554 22.8293 21.7315 22.7226 21.989C22.6158 22.2465 22.4594 22.4804 22.2622 22.6774C22.0652 22.8747 21.8312 23.0311 21.5737 23.1379C21.3162 23.2446 21.0402 23.2996 20.7614 23.2996C20.4826 23.2996 20.2066 23.2446 19.9491 23.1379C19.6916 23.0311 19.4577 22.8747 19.2606 22.6774L19.197 22.6138C18.947 22.3693 18.6296 22.2053 18.2855 22.1429C17.9415 22.0805 17.5866 22.1226 17.2667 22.2638C16.953 22.3982 16.6855 22.6215 16.497 22.906C16.3086 23.1906 16.2075 23.524 16.2061 23.8653V24.0456C16.2061 24.6082 15.9826 25.1477 15.5848 25.5455C15.187 25.9433 14.6475 26.1668 14.0849 26.1668C13.5223 26.1668 12.9828 25.9433 12.585 25.5455C12.1872 25.1477 11.9637 24.6082 11.9637 24.0456V23.9502C11.9555 23.5991 11.8418 23.2586 11.6376 22.973C11.4333 22.6874 11.1478 22.4699 10.8182 22.3486C10.4983 22.2075 10.1435 22.1654 9.79942 22.2277C9.45536 22.2901 9.13788 22.4541 8.88792 22.6986L8.82428 22.7623C8.62728 22.9595 8.39333 23.116 8.13582 23.2227C7.87831 23.3295 7.60229 23.3844 7.32353 23.3844C7.04477 23.3844 6.76874 23.3295 6.51123 23.2227C6.25372 23.116 6.01977 22.9595 5.82277 22.7623C5.62555 22.5653 5.46909 22.3313 5.36234 22.0738C5.25559 21.8163 5.20065 21.5403 5.20065 21.2615C5.20065 20.9828 5.25559 20.7067 5.36234 20.4492C5.46909 20.1917 5.62555 19.9578 5.82277 19.7608L5.8864 19.6971C6.13091 19.4472 6.29493 19.1297 6.35732 18.7856C6.4197 18.4416 6.37759 18.0867 6.2364 17.7668C6.10196 17.4531 5.87872 17.1856 5.59417 16.9972C5.30962 16.8087 4.97618 16.7076 4.63489 16.7062H4.45459C3.89201 16.7062 3.35247 16.4827 2.95466 16.0849C2.55686 15.6871 2.33337 15.1476 2.33337 14.585C2.33337 14.0224 2.55686 13.4829 2.95466 13.0851C3.35247 12.6873 3.89201 12.4638 4.45459 12.4638H4.55004C4.9011 12.4556 5.24156 12.342 5.52718 12.1377C5.81279 11.9334 6.03035 11.6479 6.15156 11.3183C6.29274 10.9984 6.33485 10.6436 6.27247 10.2995C6.21009 9.95548 6.04606 9.638 5.80156 9.38804L5.73792 9.32441C5.5407 9.1274 5.38424 8.89346 5.27749 8.63595C5.17074 8.37843 5.1158 8.10241 5.1158 7.82365C5.1158 7.54489 5.17074 7.26886 5.27749 7.01135C5.38424 6.75384 5.5407 6.51989 5.73792 6.32289C5.93492 6.12567 6.16887 5.96921 6.42638 5.86246C6.68389 5.75571 6.95992 5.70077 7.23868 5.70077C7.51744 5.70077 7.79346 5.75571 8.05098 5.86246C8.30849 5.96921 8.54243 6.12567 8.73944 6.32289L8.80307 6.38653C9.05303 6.63104 9.37051 6.79506 9.71457 6.85744C10.0586 6.91982 10.4135 6.87771 10.7334 6.73653H10.8182C11.1319 6.60208 11.3995 6.37884 11.5879 6.09429C11.7763 5.80974 11.8775 5.4763 11.8788 5.13501V4.95471C11.8788 4.39213 12.1023 3.85259 12.5001 3.45478C12.8979 3.05698 13.4375 2.8335 14 2.8335C14.5626 2.8335 15.1022 3.05698 15.5 3.45478C15.8978 3.85259 16.1213 4.39213 16.1213 4.95471V5.05016C16.1226 5.39145 16.2237 5.72489 16.4122 6.00944C16.6006 6.294 16.8682 6.51723 17.1819 6.65168C17.5018 6.79286 17.8566 6.83498 18.2007 6.77259C18.5447 6.71021 18.8622 6.54619 19.1122 6.30168L19.1758 6.23804C19.3728 6.04082 19.6067 5.88436 19.8643 5.77761C20.1218 5.67086 20.3978 5.61592 20.6766 5.61592C20.9553 5.61592 21.2313 5.67086 21.4889 5.77761C21.7464 5.88436 21.9803 6.04082 22.1773 6.23804C22.3745 6.43505 22.531 6.66899 22.6377 6.9265C22.7445 7.18401 22.7994 7.46004 22.7994 7.7388C22.7994 8.01756 22.7445 8.29359 22.6377 8.5511C22.531 8.80861 22.3745 9.04255 22.1773 9.23956L22.1137 9.30319C21.8692 9.55316 21.7051 9.87063 21.6428 10.2147C21.5804 10.5587 21.6225 10.9136 21.7637 11.2335V11.3183C21.8981 11.632 22.1214 11.8996 22.4059 12.088C22.6905 12.2765 23.0239 12.3776 23.3652 12.379H23.5455C24.1081 12.379 24.6476 12.6024 25.0454 13.0002C25.4432 13.398 25.6667 13.9376 25.6667 14.5002C25.6667 15.0627 25.4432 15.6023 25.0454 16.0001C24.6476 16.3979 24.1081 16.6214 23.5455 16.6214H23.45C23.1088 16.6227 22.7753 16.7239 22.4908 16.9123C22.2062 17.1008 21.983 17.3683 21.8485 17.682Z" stroke="white" stroke-width="2" stroke-linecap="round" stroke-linejoin="round"/>
</svg>
