<svg width="16" height="16" viewBox="0 0 16 16" fill="none" xmlns="http://www.w3.org/2000/svg">
<path d="M8 2C9.10457 2 10 2.89543 10 4V7.49939C10 7.81394 10.1551 8.10353 10.3757 8.32773C10.9679 8.92961 11.333 9.75589 11.333 10.667C11.3328 12.5078 9.84084 14 8 14C6.15916 14 4.66717 12.5078 4.66699 10.667C4.66699 9.75589 5.03206 8.92961 5.62432 8.32773C5.84494 8.10353 6 7.81394 6 7.49939V4C6 2.89543 6.89543 2 8 2Z" fill="white"/>
<path d="M10 4H11H10ZM11.333 10.667L12.333 10.6671V10.667H11.333ZM8 14V15V14ZM4.66699 10.667H3.66699V10.6671L4.66699 10.667ZM8 2V3C8.55228 3 9 3.44772 9 4H10H11C11 2.34315 9.65685 1 8 1V2ZM10 4H9V7.49939H10H11V4H10ZM10.3757 8.32773L9.6629 9.02912C10.0783 9.45124 10.333 10.0284 10.333 10.667H11.333H12.333C12.333 9.48341 11.8576 8.40798 11.0885 7.62634L10.3757 8.32773ZM11.333 10.667L10.333 10.6669C10.3329 11.9556 9.28846 13 8 13V14V15C10.3932 15 12.3328 13.06 12.333 10.6671L11.333 10.667ZM8 14V13C6.71154 13 5.66712 11.9556 5.66699 10.6669L4.66699 10.667L3.66699 10.6671C3.66722 13.06 5.60678 15 8 15V14ZM4.66699 10.667H5.66699C5.66699 10.0284 5.92173 9.45124 6.3371 9.02912L5.62432 8.32773L4.91154 7.62634C4.14239 8.40798 3.66699 9.48341 3.66699 10.667H4.66699ZM6 7.49939H7V4H6H5V7.49939H6ZM6 4H7C7 3.44772 7.44772 3 8 3V2V1C6.34315 1 5 2.34315 5 4H6ZM5.62432 8.32773L6.3371 9.02912C6.68299 8.67762 7 8.14972 7 7.49939H6H5C5 7.48969 5.00275 7.49494 4.99153 7.51857C4.97945 7.54402 4.95473 7.58245 4.91154 7.62634L5.62432 8.32773ZM10 7.49939H9C9 8.14972 9.31701 8.67762 9.6629 9.02912L10.3757 8.32773L11.0885 7.62634C11.0453 7.58245 11.0206 7.54402 11.0085 7.51857C10.9973 7.49494 11 7.48969 11 7.49939H10Z" fill="#80B1FF"/>
<ellipse cx="7.99996" cy="10.6668" rx="1.33333" ry="1.33333" fill="#80B1FF"/>
</svg>
