<svg width="26" height="26" viewBox="0 0 26 26" fill="none" xmlns="http://www.w3.org/2000/svg">
<path d="M2.59998 22.2233C2.59998 18.1332 6.01712 14.8174 13 14.8174C19.9828 14.8174 23.4 18.1332 23.4 22.2233C23.4 22.8741 22.9252 23.4016 22.3396 23.4016H3.66037C3.07473 23.4016 2.59998 22.8741 2.59998 22.2233Z" fill="#8E8E8E"/>
<path d="M16.9 6.50156C16.9 8.65547 15.1539 10.4016 13 10.4016C10.8461 10.4016 9.09997 8.65547 9.09997 6.50156C9.09997 4.34765 10.8461 2.60156 13 2.60156C15.1539 2.60156 16.9 4.34765 16.9 6.50156Z" fill="#8E8E8E"/>
<path d="M2.59998 22.2233C2.59998 18.1332 6.01712 14.8174 13 14.8174C19.9828 14.8174 23.4 18.1332 23.4 22.2233C23.4 22.8741 22.9252 23.4016 22.3396 23.4016H3.66037C3.07473 23.4016 2.59998 22.8741 2.59998 22.2233Z" stroke="#8E8E8E" stroke-width="1.73333"/>
<path d="M16.9 6.50156C16.9 8.65547 15.1539 10.4016 13 10.4016C10.8461 10.4016 9.09997 8.65547 9.09997 6.50156C9.09997 4.34765 10.8461 2.60156 13 2.60156C15.1539 2.60156 16.9 4.34765 16.9 6.50156Z" stroke="#8E8E8E" stroke-width="1.73333"/>
</svg>
